<svg width="24" height="24" viewBox="0 0 24 24" fill="none" xmlns="http://www.w3.org/2000/svg">
<path d="M20.032 6.81969L14.2777 2.78969C12.7093 1.68969 10.3017 1.74969 8.79321 2.91969L3.78821 6.82969C2.78921 7.60969 2 9.20969 2 10.4697V17.3697C2 19.9197 4.06793 21.9997 6.61538 21.9997H17.3846C19.9321 21.9997 22 19.9297 22 17.3797V10.5997C22 9.24969 21.1309 7.58969 20.032 6.81969ZM12.7493 17.9997C12.7493 18.4097 12.4096 18.7497 12 18.7497C11.5904 18.7497 11.2507 18.4097 11.2507 17.9997V14.9997C11.2507 14.5897 11.5904 14.2497 12 14.2497C12.4096 14.2497 12.7493 14.5897 12.7493 14.9997V17.9997Z" fill="#292D32"/>
</svg>
