<svg width="24" height="24" viewBox="0 0 24 24" fill="none" xmlns="http://www.w3.org/2000/svg">
<path d="M15.3572 20.1758C15.7131 19.6278 15.2376 19 14.5842 19H9.41615C8.76271 19 8.28723 19.6278 8.64314 20.1758C9.35624 21.2738 10.5934 22 12.0002 22C13.4069 22 14.6441 21.2738 15.3572 20.1758Z" fill="#1D1D1F"/>
<path d="M20.5858 17H3.40408C2.62863 17 2 16.3714 2 15.5959C2 15.2151 2.15471 14.8506 2.42864 14.586L3.45736 13.5924C3.84919 13.2139 4.06969 12.692 4.06791 12.1473L4.06086 9.99568C4.04641 5.58403 7.61873 2 12.0304 2C16.4319 2 20 5.5681 20 9.96958V12.1716C20 12.702 20.2107 13.2107 20.5858 13.5858L21.5858 14.5858C21.851 14.851 22 15.2107 22 15.5858C22 16.3668 21.3668 17 20.5858 17Z" fill="#1D1D1F"/>
</svg>
