<svg width="24" height="24" viewBox="0 0 24 24" fill="none" xmlns="http://www.w3.org/2000/svg">
<path fill-rule="evenodd" clip-rule="evenodd" d="M7.25 6.75C7.25 4.13 9.38 2 12 2C14.62 2 16.75 4.13 16.75 6.75C16.74 9.32 14.73 11.4 12.17 11.49H12.15H12.1C12.04 11.48 11.96 11.48 11.88 11.49C9.26 11.4 7.25 9.32 7.25 6.75ZM6.92996 14.15C9.73996 12.29 14.29 12.29 17.08 14.15C18.34 14.99 19.03 16.13 19.04 17.36C19.04 18.6 18.34 19.74 17.08 20.59C15.68 21.53 13.84 22 12 22C10.16 22 8.31996 21.53 6.91996 20.59C5.65996 19.75 4.95996 18.61 4.95996 17.38C4.95996 16.15 5.65996 15 6.92996 14.15Z" fill="#1D1D1F"/>
</svg>
