<svg width="64" height="32" viewBox="0 0 64 32" fill="none" xmlns="http://www.w3.org/2000/svg">
<rect width="64" height="32" rx="8" fill="#F6F6F7"/>
<path d="M16.2901 6H8C5.79086 6 4 7.79086 4 10V22C4 24.2091 5.79086 26 8 26H16.2901H32C34.2091 26 36 24.2091 36 22V10C36 7.79086 34.2091 6 32 6H16.2901Z" fill="#FF4B55"/>
<path d="M20 10L21.4164 14.5835H26L22.2917 17.4163L23.7083 22L20 19.1671L16.2917 22L17.7083 17.4163L14 14.5835H18.5836L20 10Z" fill="#FFDA44"/>
<path d="M47.415 14.6508L51.2408 19.1142C51.6002 19.5335 52.2315 19.5821 52.6508 19.2227C52.6897 19.1893 52.726 19.1531 52.7593 19.1142L56.5851 14.6508C56.9445 14.2315 56.8959 13.6002 56.4766 13.2407C56.2954 13.0854 56.0645 13 55.8258 13L48.1743 13C47.622 13 47.1743 13.4477 47.1743 14C47.1743 14.2387 47.2596 14.4695 47.415 14.6508Z" fill="#343E58"/>
</svg>
